G04 #@! TF.GenerationSoftware,KiCad,Pcbnew,8.0.9-8.0.9-0~ubuntu22.04.1*
G04 #@! TF.CreationDate,2026-01-30T18:33:39+10:00*
G04 #@! TF.ProjectId,ATX-Power-Distribution-Board,4154582d-506f-4776-9572-2d4469737472,rev?*
G04 #@! TF.SameCoordinates,Original*
G04 #@! TF.FileFunction,Copper,L1,Top*
G04 #@! TF.FilePolarity,Positive*
%FSLAX46Y46*%
G04 Gerber Fmt 4.6, Leading zero omitted, Abs format (unit mm)*
G04 Created by KiCad (PCBNEW 8.0.9-8.0.9-0~ubuntu22.04.1) date 2026-01-30 18:33:39*
%MOMM*%
%LPD*%
G01*
G04 APERTURE LIST*
G04 Aperture macros list*
%AMRoundRect*
0 Rectangle with rounded corners*
0 $1 Rounding radius*
0 $2 $3 $4 $5 $6 $7 $8 $9 X,Y pos of 4 corners*
0 Add a 4 corners polygon primitive as box body*
4,1,4,$2,$3,$4,$5,$6,$7,$8,$9,$2,$3,0*
0 Add four circle primitives for the rounded corners*
1,1,$1+$1,$2,$3*
1,1,$1+$1,$4,$5*
1,1,$1+$1,$6,$7*
1,1,$1+$1,$8,$9*
0 Add four rect primitives between the rounded corners*
20,1,$1+$1,$2,$3,$4,$5,0*
20,1,$1+$1,$4,$5,$6,$7,0*
20,1,$1+$1,$6,$7,$8,$9,0*
20,1,$1+$1,$8,$9,$2,$3,0*%
G04 Aperture macros list end*
G04 #@! TA.AperFunction,ComponentPad*
%ADD10C,1.600000*%
G04 #@! TD*
G04 #@! TA.AperFunction,ComponentPad*
%ADD11O,1.600000X1.600000*%
G04 #@! TD*
G04 #@! TA.AperFunction,ComponentPad*
%ADD12R,1.700000X1.700000*%
G04 #@! TD*
G04 #@! TA.AperFunction,ComponentPad*
%ADD13O,1.700000X1.700000*%
G04 #@! TD*
G04 #@! TA.AperFunction,ComponentPad*
%ADD14C,2.400000*%
G04 #@! TD*
G04 #@! TA.AperFunction,ComponentPad*
%ADD15O,2.400000X2.400000*%
G04 #@! TD*
G04 #@! TA.AperFunction,ComponentPad*
%ADD16R,1.600000X1.600000*%
G04 #@! TD*
G04 #@! TA.AperFunction,ComponentPad*
%ADD17RoundRect,0.500000X0.500000X0.500000X-0.500000X0.500000X-0.500000X-0.500000X0.500000X-0.500000X0*%
G04 #@! TD*
G04 #@! TA.AperFunction,ComponentPad*
%ADD18C,2.000000*%
G04 #@! TD*
G04 #@! TA.AperFunction,ComponentPad*
%ADD19RoundRect,0.250000X-1.550000X0.650000X-1.550000X-0.650000X1.550000X-0.650000X1.550000X0.650000X0*%
G04 #@! TD*
G04 #@! TA.AperFunction,ComponentPad*
%ADD20O,3.600000X1.800000*%
G04 #@! TD*
G04 #@! TA.AperFunction,ComponentPad*
%ADD21RoundRect,0.250001X1.099999X1.599999X-1.099999X1.599999X-1.099999X-1.599999X1.099999X-1.599999X0*%
G04 #@! TD*
G04 #@! TA.AperFunction,ComponentPad*
%ADD22O,2.700000X3.700000*%
G04 #@! TD*
G04 #@! TA.AperFunction,ViaPad*
%ADD23C,0.600000*%
G04 #@! TD*
G04 #@! TA.AperFunction,Conductor*
%ADD24C,0.200000*%
G04 #@! TD*
G04 #@! TA.AperFunction,Conductor*
%ADD25C,2.000000*%
G04 #@! TD*
G04 APERTURE END LIST*
D10*
X148590000Y-87630000D03*
D11*
X148590000Y-97790000D03*
D12*
X101600000Y-111760000D03*
D13*
X104140000Y-111760000D03*
D10*
X148590000Y-82550000D03*
D11*
X148590000Y-72390000D03*
D12*
X153035000Y-61595000D03*
D13*
X153035000Y-59055000D03*
X155575000Y-61595000D03*
X155575000Y-59055000D03*
X158115000Y-61595000D03*
X158115000Y-59055000D03*
X160655000Y-61595000D03*
X160655000Y-59055000D03*
X163195000Y-61595000D03*
X163195000Y-59055000D03*
D14*
X180340000Y-119380000D03*
D15*
X180340000Y-63500000D03*
D12*
X101600000Y-121920000D03*
D13*
X104140000Y-121920000D03*
D16*
X154940000Y-82550000D03*
D11*
X154940000Y-85090000D03*
X154940000Y-87630000D03*
X154940000Y-90170000D03*
X154940000Y-92710000D03*
X154940000Y-95250000D03*
X154940000Y-97790000D03*
X162560000Y-97790000D03*
X162560000Y-95250000D03*
X162560000Y-92710000D03*
X162560000Y-90170000D03*
X162560000Y-87630000D03*
X162560000Y-85090000D03*
X162560000Y-82550000D03*
D17*
X119220000Y-82495000D03*
X114220000Y-82495000D03*
D18*
X104220000Y-82495000D03*
X99220000Y-82495000D03*
D17*
X119220000Y-72335000D03*
X114220000Y-72335000D03*
D18*
X104220000Y-72335000D03*
X99220000Y-72335000D03*
D19*
X86752500Y-62230000D03*
D20*
X86752500Y-67310000D03*
X86752500Y-72390000D03*
X86752500Y-77470000D03*
X86752500Y-82550000D03*
X86752500Y-87630000D03*
X86752500Y-92710000D03*
X86752500Y-97790000D03*
X86752500Y-102870000D03*
X86752500Y-107950000D03*
D10*
X161210000Y-77470000D03*
X156210000Y-77470000D03*
D16*
X142240000Y-93980000D03*
D11*
X142240000Y-91440000D03*
X142240000Y-88900000D03*
X142240000Y-86360000D03*
X142240000Y-83820000D03*
X142240000Y-81280000D03*
X142240000Y-78740000D03*
X142240000Y-76200000D03*
X142240000Y-73660000D03*
X142240000Y-71120000D03*
X142240000Y-68580000D03*
X142240000Y-66040000D03*
X142240000Y-63500000D03*
X142240000Y-60960000D03*
X142240000Y-58420000D03*
X127000000Y-58420000D03*
X127000000Y-60960000D03*
X127000000Y-63500000D03*
X127000000Y-66040000D03*
X127000000Y-68580000D03*
X127000000Y-71120000D03*
X127000000Y-73660000D03*
X127000000Y-76200000D03*
X127000000Y-78740000D03*
X127000000Y-81280000D03*
X127000000Y-83820000D03*
X127000000Y-86360000D03*
X127000000Y-88900000D03*
X127000000Y-91440000D03*
X127000000Y-93980000D03*
D21*
X167640000Y-114620000D03*
D22*
X163440000Y-114620000D03*
X159240000Y-114620000D03*
X155040000Y-114620000D03*
X150840000Y-114620000D03*
X146640000Y-114620000D03*
X142440000Y-114620000D03*
X138240000Y-114620000D03*
X134040000Y-114620000D03*
X129840000Y-114620000D03*
X125640000Y-114620000D03*
X121440000Y-114620000D03*
X167640000Y-109120000D03*
X163440000Y-109120000D03*
X159240000Y-109120000D03*
X155040000Y-109120000D03*
X150840000Y-109120000D03*
X146640000Y-109120000D03*
X142440000Y-109120000D03*
X138240000Y-109120000D03*
X134040000Y-109120000D03*
X129840000Y-109120000D03*
X125640000Y-109120000D03*
X121440000Y-109120000D03*
D17*
X119300000Y-92655000D03*
X114300000Y-92655000D03*
D18*
X104300000Y-92655000D03*
X99300000Y-92655000D03*
D12*
X101600000Y-116840000D03*
D13*
X104140000Y-116840000D03*
D10*
X168910000Y-97790000D03*
D11*
X168910000Y-87630000D03*
D12*
X101600000Y-106680000D03*
D13*
X104140000Y-106680000D03*
D17*
X119140000Y-62175000D03*
X114140000Y-62175000D03*
D18*
X104140000Y-62175000D03*
X99140000Y-62175000D03*
D10*
X168910000Y-82550000D03*
D11*
X168910000Y-72390000D03*
D23*
X161290000Y-73660000D03*
X170180000Y-77470000D03*
X138430000Y-62231600D03*
D24*
X154940000Y-87630000D02*
X151765000Y-90805000D01*
X151765000Y-99695000D02*
X146082700Y-105377300D01*
X135890000Y-111125000D02*
X135255000Y-111760000D01*
X151765000Y-90805000D02*
X151765000Y-99695000D01*
X135890000Y-108636548D02*
X135890000Y-111125000D01*
X146082700Y-105377300D02*
X139149248Y-105377300D01*
X139149248Y-105377300D02*
X135890000Y-108636548D01*
X132390000Y-113355000D02*
X132390000Y-115803452D01*
X135255000Y-111760000D02*
X133985000Y-111760000D01*
X133985000Y-111760000D02*
X132390000Y-113355000D01*
X132390000Y-115803452D02*
X133356548Y-116770000D01*
X133356548Y-116770000D02*
X136090000Y-116770000D01*
X136090000Y-116770000D02*
X138240000Y-114620000D01*
X150852300Y-102053700D02*
X164646300Y-102053700D01*
X164646300Y-102053700D02*
X168910000Y-97790000D01*
X151461600Y-83678400D02*
X160329900Y-83678400D01*
X142578900Y-111870000D02*
X144540000Y-109908900D01*
X162560000Y-82550000D02*
X161458300Y-82550000D01*
X144540000Y-109908900D02*
X144540000Y-108366000D01*
X134040000Y-114620000D02*
X135395600Y-114620000D01*
X138145600Y-111870000D02*
X142578900Y-111870000D01*
X160329900Y-83678400D02*
X161458300Y-82550000D01*
X128101700Y-86360000D02*
X129203400Y-85258300D01*
X127000000Y-86360000D02*
X128101700Y-86360000D01*
X144540000Y-108366000D02*
X150852300Y-102053700D01*
X129203400Y-85258300D02*
X149881700Y-85258300D01*
X135395600Y-114620000D02*
X138145600Y-111870000D01*
X149881700Y-85258300D02*
X151461600Y-83678400D01*
X161027700Y-79441200D02*
X163669700Y-82083200D01*
X162560000Y-85090000D02*
X163110900Y-85090000D01*
X128101700Y-71120000D02*
X134580900Y-77599200D01*
X127000000Y-71120000D02*
X128101700Y-71120000D01*
X163669700Y-84531200D02*
X163110900Y-85090000D01*
X163110900Y-85090000D02*
X163661700Y-85090000D01*
X163669700Y-82083200D02*
X163669700Y-84531200D01*
X143228900Y-77599200D02*
X145070900Y-79441200D01*
X166201700Y-87630000D02*
X163661700Y-85090000D01*
X134580900Y-77599200D02*
X143228900Y-77599200D01*
X145070900Y-79441200D02*
X161027700Y-79441200D01*
X168910000Y-87630000D02*
X166201700Y-87630000D01*
X156210000Y-69850000D02*
X131911700Y-69850000D01*
X168910000Y-82550000D02*
X156210000Y-69850000D01*
X131911700Y-69850000D02*
X128101700Y-66040000D01*
X127000000Y-66040000D02*
X128101700Y-66040000D01*
X144759600Y-62784800D02*
X144206400Y-62231600D01*
X159465200Y-62784800D02*
X144759600Y-62784800D01*
X160655000Y-61595000D02*
X159465200Y-62784800D01*
X143392100Y-60257100D02*
X156912900Y-60257100D01*
X127301800Y-64770000D02*
X132230500Y-59841300D01*
X142976300Y-59841300D02*
X143392100Y-60257100D01*
X156912900Y-60257100D02*
X158115000Y-59055000D01*
X132230500Y-59841300D02*
X142976300Y-59841300D01*
X125864600Y-67444600D02*
X125864600Y-65586400D01*
X125864600Y-65586400D02*
X126681000Y-64770000D01*
X126681000Y-64770000D02*
X127301800Y-64770000D01*
X127000000Y-68580000D02*
X125864600Y-67444600D01*
D25*
X167640000Y-109120000D02*
X167640000Y-114620000D01*
X125565000Y-118745000D02*
X121440000Y-114620000D01*
X123190000Y-97790000D02*
X123190000Y-66225000D01*
X167640000Y-114620000D02*
X163440000Y-114620000D01*
X118110000Y-111290000D02*
X118110000Y-102870000D01*
X118110000Y-102870000D02*
X123190000Y-97790000D01*
X163440000Y-114620000D02*
X159315000Y-118745000D01*
X159315000Y-118745000D02*
X125565000Y-118745000D01*
X119140000Y-62175000D02*
X114140000Y-62175000D01*
X121440000Y-114620000D02*
X118110000Y-111290000D01*
X123190000Y-66225000D02*
X119140000Y-62175000D01*
D24*
X161290000Y-73660000D02*
X166370000Y-73660000D01*
X166370000Y-73660000D02*
X170180000Y-77470000D01*
X144206400Y-62231600D02*
X138430000Y-62231600D01*
M02*
