G04 #@! TF.GenerationSoftware,KiCad,Pcbnew,8.0.9-8.0.9-0~ubuntu22.04.1*
G04 #@! TF.CreationDate,2026-01-30T18:33:39+10:00*
G04 #@! TF.ProjectId,ATX-Power-Distribution-Board,4154582d-506f-4776-9572-2d4469737472,rev?*
G04 #@! TF.SameCoordinates,Original*
G04 #@! TF.FileFunction,Soldermask,Bot*
G04 #@! TF.FilePolarity,Negative*
%FSLAX46Y46*%
G04 Gerber Fmt 4.6, Leading zero omitted, Abs format (unit mm)*
G04 Created by KiCad (PCBNEW 8.0.9-8.0.9-0~ubuntu22.04.1) date 2026-01-30 18:33:39*
%MOMM*%
%LPD*%
G01*
G04 APERTURE LIST*
G04 Aperture macros list*
%AMRoundRect*
0 Rectangle with rounded corners*
0 $1 Rounding radius*
0 $2 $3 $4 $5 $6 $7 $8 $9 X,Y pos of 4 corners*
0 Add a 4 corners polygon primitive as box body*
4,1,4,$2,$3,$4,$5,$6,$7,$8,$9,$2,$3,0*
0 Add four circle primitives for the rounded corners*
1,1,$1+$1,$2,$3*
1,1,$1+$1,$4,$5*
1,1,$1+$1,$6,$7*
1,1,$1+$1,$8,$9*
0 Add four rect primitives between the rounded corners*
20,1,$1+$1,$2,$3,$4,$5,0*
20,1,$1+$1,$4,$5,$6,$7,0*
20,1,$1+$1,$6,$7,$8,$9,0*
20,1,$1+$1,$8,$9,$2,$3,0*%
G04 Aperture macros list end*
%ADD10C,1.600000*%
%ADD11O,1.600000X1.600000*%
%ADD12C,3.000000*%
%ADD13R,1.700000X1.700000*%
%ADD14O,1.700000X1.700000*%
%ADD15C,2.400000*%
%ADD16O,2.400000X2.400000*%
%ADD17R,1.600000X1.600000*%
%ADD18RoundRect,0.500000X0.500000X0.500000X-0.500000X0.500000X-0.500000X-0.500000X0.500000X-0.500000X0*%
%ADD19C,2.000000*%
%ADD20RoundRect,0.250000X-1.550000X0.650000X-1.550000X-0.650000X1.550000X-0.650000X1.550000X0.650000X0*%
%ADD21O,3.600000X1.800000*%
%ADD22RoundRect,0.250001X1.099999X1.599999X-1.099999X1.599999X-1.099999X-1.599999X1.099999X-1.599999X0*%
%ADD23O,2.700000X3.700000*%
G04 APERTURE END LIST*
D10*
X148590000Y-87630000D03*
D11*
X148590000Y-97790000D03*
D12*
X184150000Y-54610000D03*
D13*
X101600000Y-111760000D03*
D14*
X104140000Y-111760000D03*
D10*
X148590000Y-82550000D03*
D11*
X148590000Y-72390000D03*
D13*
X153035000Y-61595000D03*
D14*
X153035000Y-59055000D03*
X155575000Y-61595000D03*
X155575000Y-59055000D03*
X158115000Y-61595000D03*
X158115000Y-59055000D03*
X160655000Y-61595000D03*
X160655000Y-59055000D03*
X163195000Y-61595000D03*
X163195000Y-59055000D03*
D15*
X180340000Y-119380000D03*
D16*
X180340000Y-63500000D03*
D13*
X101600000Y-121920000D03*
D14*
X104140000Y-121920000D03*
D12*
X80010000Y-125730000D03*
D17*
X154940000Y-82550000D03*
D11*
X154940000Y-85090000D03*
X154940000Y-87630000D03*
X154940000Y-90170000D03*
X154940000Y-92710000D03*
X154940000Y-95250000D03*
X154940000Y-97790000D03*
X162560000Y-97790000D03*
X162560000Y-95250000D03*
X162560000Y-92710000D03*
X162560000Y-90170000D03*
X162560000Y-87630000D03*
X162560000Y-85090000D03*
X162560000Y-82550000D03*
D18*
X119220000Y-82495000D03*
X114220000Y-82495000D03*
D19*
X104220000Y-82495000D03*
X99220000Y-82495000D03*
D18*
X119220000Y-72335000D03*
X114220000Y-72335000D03*
D19*
X104220000Y-72335000D03*
X99220000Y-72335000D03*
D20*
X86752500Y-62230000D03*
D21*
X86752500Y-67310000D03*
X86752500Y-72390000D03*
X86752500Y-77470000D03*
X86752500Y-82550000D03*
X86752500Y-87630000D03*
X86752500Y-92710000D03*
X86752500Y-97790000D03*
X86752500Y-102870000D03*
X86752500Y-107950000D03*
D10*
X161210000Y-77470000D03*
X156210000Y-77470000D03*
D17*
X142240000Y-93980000D03*
D11*
X142240000Y-91440000D03*
X142240000Y-88900000D03*
X142240000Y-86360000D03*
X142240000Y-83820000D03*
X142240000Y-81280000D03*
X142240000Y-78740000D03*
X142240000Y-76200000D03*
X142240000Y-73660000D03*
X142240000Y-71120000D03*
X142240000Y-68580000D03*
X142240000Y-66040000D03*
X142240000Y-63500000D03*
X142240000Y-60960000D03*
X142240000Y-58420000D03*
X127000000Y-58420000D03*
X127000000Y-60960000D03*
X127000000Y-63500000D03*
X127000000Y-66040000D03*
X127000000Y-68580000D03*
X127000000Y-71120000D03*
X127000000Y-73660000D03*
X127000000Y-76200000D03*
X127000000Y-78740000D03*
X127000000Y-81280000D03*
X127000000Y-83820000D03*
X127000000Y-86360000D03*
X127000000Y-88900000D03*
X127000000Y-91440000D03*
X127000000Y-93980000D03*
D12*
X167640000Y-121920000D03*
X121440000Y-121920000D03*
D22*
X167640000Y-114620000D03*
D23*
X163440000Y-114620000D03*
X159240000Y-114620000D03*
X155040000Y-114620000D03*
X150840000Y-114620000D03*
X146640000Y-114620000D03*
X142440000Y-114620000D03*
X138240000Y-114620000D03*
X134040000Y-114620000D03*
X129840000Y-114620000D03*
X125640000Y-114620000D03*
X121440000Y-114620000D03*
X167640000Y-109120000D03*
X163440000Y-109120000D03*
X159240000Y-109120000D03*
X155040000Y-109120000D03*
X150840000Y-109120000D03*
X146640000Y-109120000D03*
X142440000Y-109120000D03*
X138240000Y-109120000D03*
X134040000Y-109120000D03*
X129840000Y-109120000D03*
X125640000Y-109120000D03*
X121440000Y-109120000D03*
D18*
X119300000Y-92655000D03*
X114300000Y-92655000D03*
D19*
X104300000Y-92655000D03*
X99300000Y-92655000D03*
D13*
X101600000Y-116840000D03*
D14*
X104140000Y-116840000D03*
D10*
X168910000Y-97790000D03*
D11*
X168910000Y-87630000D03*
D13*
X101600000Y-106680000D03*
D14*
X104140000Y-106680000D03*
D12*
X80010000Y-54610000D03*
D18*
X119140000Y-62175000D03*
X114140000Y-62175000D03*
D19*
X104140000Y-62175000D03*
X99140000Y-62175000D03*
D10*
X168910000Y-82550000D03*
D11*
X168910000Y-72390000D03*
D12*
X184150000Y-125730000D03*
M02*
