M48
INCH,TZ
T1C0.0118
T2C0.0315
T3C0.0394
T4C0.0413
T5C0.0472
T6C0.0709
%
G90
G05
T1
X54500Y-24501
X63500Y-29000
X67000Y-30500
T2
X58500Y-28500
X58500Y-32500
X58500Y-34500
X58500Y-38500
X61000Y-32500
X61000Y-33500
X61000Y-34500
X61000Y-35500
X61000Y-36500
X61000Y-37500
X61000Y-38500
X61500Y-30500
X63469Y-30500
X64000Y-32500
X64000Y-33500
X64000Y-34500
X64000Y-35500
X64000Y-36500
X64000Y-37500
X64000Y-38500
X66500Y-28500
X66500Y-32500
X66500Y-34500
X66500Y-38500
T3
X40000Y-42000
X40000Y-44000
X40000Y-46000
X40000Y-48000
X41000Y-42000
X41000Y-44000
X41000Y-46000
X41000Y-48000
X50000Y-23000
X50000Y-24000
X50000Y-25000
X50000Y-26000
X50000Y-27000
X50000Y-28000
X50000Y-29000
X50000Y-30000
X50000Y-31000
X50000Y-32000
X50000Y-33000
X50000Y-34000
X50000Y-35000
X50000Y-36000
X50000Y-37000
X56000Y-23000
X56000Y-24000
X56000Y-25000
X56000Y-26000
X56000Y-27000
X56000Y-28000
X56000Y-29000
X56000Y-30000
X56000Y-31000
X56000Y-32000
X56000Y-33000
X56000Y-34000
X56000Y-35000
X56000Y-36000
X56000Y-37000
X60250Y-23250
X60250Y-24250
X61250Y-23250
X61250Y-24250
X62250Y-23250
X62250Y-24250
X63250Y-23250
X63250Y-24250
X64250Y-23250
X64250Y-24250
T4
X39031Y-24478
X39063Y-28478
X39063Y-32478
X39094Y-36478
X41000Y-24478
X41031Y-28478
X41031Y-32478
X41063Y-36478
X44937Y-24478
X44969Y-28478
X44969Y-32478
X45000Y-36478
X46906Y-24478
X46937Y-28478
X46937Y-32478
X46969Y-36478
T5
X34155Y-24500
X34155Y-26500
X34155Y-28500
X34155Y-30500
X34155Y-32500
X34155Y-34500
X34155Y-36500
X34155Y-38500
X34155Y-40500
X34155Y-42500
X71000Y-25000
X71000Y-47000
T6
X47811Y-42961
X47811Y-45126
X49465Y-42961
X49465Y-45126
X51118Y-42961
X51118Y-45126
X52772Y-42961
X52772Y-45126
X54425Y-42961
X54425Y-45126
X56079Y-42961
X56079Y-45126
X57732Y-42961
X57732Y-45126
X59386Y-42961
X59386Y-45126
X61039Y-42961
X61039Y-45126
X62693Y-42961
X62693Y-45126
X64346Y-42961
X64346Y-45126
X66000Y-42961
X66000Y-45126
M30
