G04 #@! TF.GenerationSoftware,KiCad,Pcbnew,8.0.9-8.0.9-0~ubuntu22.04.1*
G04 #@! TF.CreationDate,2026-01-30T18:33:39+10:00*
G04 #@! TF.ProjectId,ATX-Power-Distribution-Board,4154582d-506f-4776-9572-2d4469737472,rev?*
G04 #@! TF.SameCoordinates,Original*
G04 #@! TF.FileFunction,Copper,L4,Bot*
G04 #@! TF.FilePolarity,Positive*
%FSLAX46Y46*%
G04 Gerber Fmt 4.6, Leading zero omitted, Abs format (unit mm)*
G04 Created by KiCad (PCBNEW 8.0.9-8.0.9-0~ubuntu22.04.1) date 2026-01-30 18:33:39*
%MOMM*%
%LPD*%
G01*
G04 APERTURE LIST*
G04 Aperture macros list*
%AMRoundRect*
0 Rectangle with rounded corners*
0 $1 Rounding radius*
0 $2 $3 $4 $5 $6 $7 $8 $9 X,Y pos of 4 corners*
0 Add a 4 corners polygon primitive as box body*
4,1,4,$2,$3,$4,$5,$6,$7,$8,$9,$2,$3,0*
0 Add four circle primitives for the rounded corners*
1,1,$1+$1,$2,$3*
1,1,$1+$1,$4,$5*
1,1,$1+$1,$6,$7*
1,1,$1+$1,$8,$9*
0 Add four rect primitives between the rounded corners*
20,1,$1+$1,$2,$3,$4,$5,0*
20,1,$1+$1,$4,$5,$6,$7,0*
20,1,$1+$1,$6,$7,$8,$9,0*
20,1,$1+$1,$8,$9,$2,$3,0*%
G04 Aperture macros list end*
G04 #@! TA.AperFunction,ComponentPad*
%ADD10C,1.600000*%
G04 #@! TD*
G04 #@! TA.AperFunction,ComponentPad*
%ADD11O,1.600000X1.600000*%
G04 #@! TD*
G04 #@! TA.AperFunction,ComponentPad*
%ADD12R,1.700000X1.700000*%
G04 #@! TD*
G04 #@! TA.AperFunction,ComponentPad*
%ADD13O,1.700000X1.700000*%
G04 #@! TD*
G04 #@! TA.AperFunction,ComponentPad*
%ADD14C,2.400000*%
G04 #@! TD*
G04 #@! TA.AperFunction,ComponentPad*
%ADD15O,2.400000X2.400000*%
G04 #@! TD*
G04 #@! TA.AperFunction,ComponentPad*
%ADD16R,1.600000X1.600000*%
G04 #@! TD*
G04 #@! TA.AperFunction,ComponentPad*
%ADD17RoundRect,0.500000X0.500000X0.500000X-0.500000X0.500000X-0.500000X-0.500000X0.500000X-0.500000X0*%
G04 #@! TD*
G04 #@! TA.AperFunction,ComponentPad*
%ADD18C,2.000000*%
G04 #@! TD*
G04 #@! TA.AperFunction,ComponentPad*
%ADD19RoundRect,0.250000X-1.550000X0.650000X-1.550000X-0.650000X1.550000X-0.650000X1.550000X0.650000X0*%
G04 #@! TD*
G04 #@! TA.AperFunction,ComponentPad*
%ADD20O,3.600000X1.800000*%
G04 #@! TD*
G04 #@! TA.AperFunction,ComponentPad*
%ADD21RoundRect,0.250001X1.099999X1.599999X-1.099999X1.599999X-1.099999X-1.599999X1.099999X-1.599999X0*%
G04 #@! TD*
G04 #@! TA.AperFunction,ComponentPad*
%ADD22O,2.700000X3.700000*%
G04 #@! TD*
G04 #@! TA.AperFunction,ViaPad*
%ADD23C,0.600000*%
G04 #@! TD*
G04 #@! TA.AperFunction,Conductor*
%ADD24C,0.200000*%
G04 #@! TD*
G04 #@! TA.AperFunction,Conductor*
%ADD25C,2.000000*%
G04 #@! TD*
G04 APERTURE END LIST*
D10*
X148590000Y-87630000D03*
D11*
X148590000Y-97790000D03*
D12*
X101600000Y-111760000D03*
D13*
X104140000Y-111760000D03*
D10*
X148590000Y-82550000D03*
D11*
X148590000Y-72390000D03*
D12*
X153035000Y-61595000D03*
D13*
X153035000Y-59055000D03*
X155575000Y-61595000D03*
X155575000Y-59055000D03*
X158115000Y-61595000D03*
X158115000Y-59055000D03*
X160655000Y-61595000D03*
X160655000Y-59055000D03*
X163195000Y-61595000D03*
X163195000Y-59055000D03*
D14*
X180340000Y-119380000D03*
D15*
X180340000Y-63500000D03*
D12*
X101600000Y-121920000D03*
D13*
X104140000Y-121920000D03*
D16*
X154940000Y-82550000D03*
D11*
X154940000Y-85090000D03*
X154940000Y-87630000D03*
X154940000Y-90170000D03*
X154940000Y-92710000D03*
X154940000Y-95250000D03*
X154940000Y-97790000D03*
X162560000Y-97790000D03*
X162560000Y-95250000D03*
X162560000Y-92710000D03*
X162560000Y-90170000D03*
X162560000Y-87630000D03*
X162560000Y-85090000D03*
X162560000Y-82550000D03*
D17*
X119220000Y-82495000D03*
X114220000Y-82495000D03*
D18*
X104220000Y-82495000D03*
X99220000Y-82495000D03*
D17*
X119220000Y-72335000D03*
X114220000Y-72335000D03*
D18*
X104220000Y-72335000D03*
X99220000Y-72335000D03*
D19*
X86752500Y-62230000D03*
D20*
X86752500Y-67310000D03*
X86752500Y-72390000D03*
X86752500Y-77470000D03*
X86752500Y-82550000D03*
X86752500Y-87630000D03*
X86752500Y-92710000D03*
X86752500Y-97790000D03*
X86752500Y-102870000D03*
X86752500Y-107950000D03*
D10*
X161210000Y-77470000D03*
X156210000Y-77470000D03*
D16*
X142240000Y-93980000D03*
D11*
X142240000Y-91440000D03*
X142240000Y-88900000D03*
X142240000Y-86360000D03*
X142240000Y-83820000D03*
X142240000Y-81280000D03*
X142240000Y-78740000D03*
X142240000Y-76200000D03*
X142240000Y-73660000D03*
X142240000Y-71120000D03*
X142240000Y-68580000D03*
X142240000Y-66040000D03*
X142240000Y-63500000D03*
X142240000Y-60960000D03*
X142240000Y-58420000D03*
X127000000Y-58420000D03*
X127000000Y-60960000D03*
X127000000Y-63500000D03*
X127000000Y-66040000D03*
X127000000Y-68580000D03*
X127000000Y-71120000D03*
X127000000Y-73660000D03*
X127000000Y-76200000D03*
X127000000Y-78740000D03*
X127000000Y-81280000D03*
X127000000Y-83820000D03*
X127000000Y-86360000D03*
X127000000Y-88900000D03*
X127000000Y-91440000D03*
X127000000Y-93980000D03*
D21*
X167640000Y-114620000D03*
D22*
X163440000Y-114620000D03*
X159240000Y-114620000D03*
X155040000Y-114620000D03*
X150840000Y-114620000D03*
X146640000Y-114620000D03*
X142440000Y-114620000D03*
X138240000Y-114620000D03*
X134040000Y-114620000D03*
X129840000Y-114620000D03*
X125640000Y-114620000D03*
X121440000Y-114620000D03*
X167640000Y-109120000D03*
X163440000Y-109120000D03*
X159240000Y-109120000D03*
X155040000Y-109120000D03*
X150840000Y-109120000D03*
X146640000Y-109120000D03*
X142440000Y-109120000D03*
X138240000Y-109120000D03*
X134040000Y-109120000D03*
X129840000Y-109120000D03*
X125640000Y-109120000D03*
X121440000Y-109120000D03*
D17*
X119300000Y-92655000D03*
X114300000Y-92655000D03*
D18*
X104300000Y-92655000D03*
X99300000Y-92655000D03*
D12*
X101600000Y-116840000D03*
D13*
X104140000Y-116840000D03*
D10*
X168910000Y-97790000D03*
D11*
X168910000Y-87630000D03*
D12*
X101600000Y-106680000D03*
D13*
X104140000Y-106680000D03*
D17*
X119140000Y-62175000D03*
X114140000Y-62175000D03*
D18*
X104140000Y-62175000D03*
X99140000Y-62175000D03*
D10*
X168910000Y-82550000D03*
D11*
X168910000Y-72390000D03*
D23*
X161290000Y-73660000D03*
X170180000Y-77470000D03*
X138430000Y-62231600D03*
D24*
X138428400Y-62231600D02*
X138430000Y-62231600D01*
X158392850Y-100052150D02*
X165735000Y-107394300D01*
X154940000Y-85090000D02*
X158392850Y-88542850D01*
X158392850Y-88542850D02*
X158392850Y-100052150D01*
X165735000Y-107394300D02*
X165735000Y-109658452D01*
X165735000Y-109658452D02*
X163633452Y-111760000D01*
X163633452Y-111760000D02*
X157480000Y-111760000D01*
X157480000Y-111760000D02*
X155040000Y-109320000D01*
X155040000Y-109320000D02*
X155040000Y-109120000D01*
X154940000Y-90170000D02*
X140335000Y-90170000D01*
X140335000Y-90170000D02*
X139700000Y-89535000D01*
X139700000Y-89535000D02*
X139700000Y-71120000D01*
X139700000Y-71120000D02*
X142240000Y-68580000D01*
X161210000Y-77470000D02*
X163195000Y-75485000D01*
X162560000Y-82550000D02*
X162560000Y-78820000D01*
X163195000Y-75485000D02*
X163195000Y-61595000D01*
X167005000Y-86995000D02*
X162560000Y-82550000D01*
X162560000Y-78820000D02*
X161210000Y-77470000D01*
X168910000Y-97790000D02*
X167005000Y-95885000D01*
X167005000Y-95885000D02*
X167005000Y-86995000D01*
X143341700Y-82381700D02*
X148590000Y-87630000D01*
X153670000Y-82550000D02*
X154940000Y-82550000D01*
X143341700Y-67141700D02*
X143341700Y-82381700D01*
X148590000Y-87630000D02*
X153670000Y-82550000D01*
X142240000Y-66040000D02*
X143341700Y-67141700D01*
D25*
X104140000Y-62175000D02*
X99140000Y-62175000D01*
X86752500Y-62230000D02*
X99085000Y-62230000D01*
X99085000Y-62230000D02*
X99140000Y-62175000D01*
X99165000Y-72390000D02*
X99220000Y-72335000D01*
X86752500Y-72390000D02*
X99165000Y-72390000D01*
X104220000Y-72335000D02*
X99220000Y-72335000D01*
X99220000Y-82495000D02*
X86807500Y-82495000D01*
X104140000Y-111760000D02*
X104140000Y-106680000D01*
X107950000Y-102870000D02*
X107950000Y-86225000D01*
X86807500Y-82495000D02*
X86752500Y-82550000D01*
X104140000Y-106680000D02*
X107950000Y-102870000D01*
X104140000Y-121920000D02*
X104140000Y-116840000D01*
X107950000Y-86225000D02*
X104220000Y-82495000D01*
X104140000Y-116840000D02*
X104140000Y-111760000D01*
X99220000Y-82495000D02*
X104220000Y-82495000D01*
X111125000Y-116840000D02*
X113455000Y-119170000D01*
X111125000Y-85725000D02*
X111125000Y-116840000D01*
X113455000Y-119170000D02*
X121090000Y-119170000D01*
X121090000Y-119170000D02*
X125640000Y-114620000D01*
X114220000Y-82495000D02*
X114220000Y-82630000D01*
X129840000Y-114620000D02*
X125640000Y-114620000D01*
X114220000Y-82630000D02*
X111125000Y-85725000D01*
X119220000Y-82495000D02*
X114220000Y-82495000D01*
X86807500Y-92655000D02*
X86752500Y-92710000D01*
X104300000Y-92655000D02*
X86807500Y-92655000D01*
X119300000Y-92655000D02*
X114300000Y-92655000D01*
X119380000Y-103505000D02*
X114300000Y-98425000D01*
X163440000Y-109120000D02*
X157825000Y-103505000D01*
X157825000Y-103505000D02*
X119380000Y-103505000D01*
X114300000Y-98425000D02*
X114300000Y-92655000D01*
D24*
X154940000Y-60325000D02*
X163629200Y-60325000D01*
X153035000Y-59055000D02*
X153670000Y-59055000D01*
X163629200Y-60325000D02*
X168910000Y-65605800D01*
X168910000Y-65605800D02*
X168910000Y-72390000D01*
X153670000Y-59055000D02*
X154940000Y-60325000D01*
X153035000Y-62746700D02*
X148590000Y-67191700D01*
X153035000Y-61595000D02*
X153035000Y-62746700D01*
X148590000Y-67191700D02*
X148590000Y-72390000D01*
X171450000Y-124460000D02*
X171450000Y-104775000D01*
X88900000Y-105017500D02*
X88900000Y-115570000D01*
X165735000Y-90805000D02*
X162560000Y-87630000D01*
X88900000Y-115570000D02*
X98425000Y-125095000D01*
X171450000Y-104775000D02*
X165735000Y-99060000D01*
X98425000Y-125095000D02*
X170815000Y-125095000D01*
X170815000Y-125095000D02*
X171450000Y-124460000D01*
X86752500Y-102870000D02*
X88900000Y-105017500D01*
X165735000Y-99060000D02*
X165735000Y-90805000D01*
X97790000Y-126365000D02*
X171450000Y-126365000D01*
X148590000Y-79375000D02*
X154305000Y-73660000D01*
X86752500Y-107950000D02*
X86752500Y-115327500D01*
X172720000Y-125095000D02*
X172720000Y-80010000D01*
X171450000Y-126365000D02*
X172720000Y-125095000D01*
X148590000Y-82550000D02*
X148590000Y-79375000D01*
X172720000Y-80010000D02*
X170180000Y-77470000D01*
X154305000Y-73660000D02*
X161290000Y-73660000D01*
X86752500Y-115327500D02*
X97790000Y-126365000D01*
X127000000Y-73660000D02*
X138428400Y-62231600D01*
M02*
